<svg width="572" height="572" viewBox="0 0 572 572" fill="none" xmlns="http://www.w3.org/2000/svg">
<g filter="url(#filter0_i_0_1)">
<g clip-path="url(#clip0_0_1)">
<rect x="30" y="30" width="512" height="512" rx="50" fill="#ADFFFF"/>
<g filter="url(#filter1_d_0_1)">
<circle cx="411" cy="397" r="75" fill="#E8E8E8"/>
</g>
<g filter="url(#filter2_d_0_1)">
<circle cx="285.5" cy="396.5" r="26.5" fill="#E8E8E8"/>
</g>
<g filter="url(#filter3_d_0_1)">
<circle cx="410.5" cy="285.5" r="26.5" fill="#E8E8E8"/>
</g>
<g filter="url(#filter4_d_0_1)">
<circle cx="508.5" cy="312.5" r="26.5" fill="#E8E8E8"/>
</g>
<g filter="url(#filter5_d_0_1)">
<circle cx="312.5" cy="482.5" r="26.5" fill="#E8E8E8"/>
</g>
<g filter="url(#filter6_d_0_1)">
<circle cx="508.5" cy="482.5" r="26.5" fill="#E8E8E8"/>
</g>
<g filter="url(#filter7_d_0_1)">
<circle cx="312.5" cy="312.5" r="26.5" fill="#E8E8E8"/>
</g>
<g filter="url(#filter8_d_0_1)">
<circle cx="410.5" cy="508.5" r="26.5" fill="#E8E8E8"/>
</g>
<g filter="url(#filter9_d_0_1)">
<circle cx="536.5" cy="396.5" r="26.5" fill="#E8E8E8"/>
</g>
<g filter="url(#filter10_d_0_1)">
<path d="M225.1 128.55C225.1 130.45 224.4 132.1 223 133.5C221.7 134.8 220.15 135.45 218.35 135.45H179.65C178.45 135.45 177.85 136.1 177.85 137.4V157.35C177.85 158.75 178.45 159.45 179.65 159.45H212.95C214.95 159.45 216.6 160.1 217.9 161.4C219.2 162.7 219.85 164.3 219.85 166.2V170.4C219.85 172.3 219.2 173.95 217.9 175.35C216.6 176.65 214.95 177.3 212.95 177.3H179.65C178.45 177.3 177.85 177.9 177.85 179.1V212.1C177.85 214 177.15 215.65 175.75 217.05C174.45 218.35 172.85 219 170.95 219H166.75C164.95 219 163.35 218.35 161.95 217.05C160.65 215.65 160 214 160 212.1V124.5C160 122.5 160.65 120.85 161.95 119.55C163.35 118.25 164.95 117.6 166.75 117.6H218.35C220.15 117.6 221.7 118.25 223 119.55C224.4 120.85 225.1 122.5 225.1 124.5V128.55ZM302.151 212.1C302.151 214 301.451 215.65 300.051 217.05C298.751 218.35 297.201 219 295.401 219H243.801C242.001 219 240.401 218.35 239.001 217.05C237.701 215.65 237.051 214 237.051 212.1V124.5C237.051 122.5 237.701 120.85 239.001 119.55C240.401 118.25 242.001 117.6 243.801 117.6H248.001C249.901 117.6 251.501 118.25 252.801 119.55C254.201 120.85 254.901 122.5 254.901 124.5V199.35C254.901 200.65 255.501 201.3 256.701 201.3H295.401C297.201 201.3 298.751 201.95 300.051 203.25C301.451 204.55 302.151 206.2 302.151 208.2V212.1ZM380.852 199.2C380.852 202.8 379.952 206.1 378.152 209.1C376.352 212.1 373.952 214.5 370.952 216.3C367.952 218.1 364.652 219 361.052 219H334.052C330.452 219 327.102 218.1 324.002 216.3C321.002 214.5 318.602 212.1 316.802 209.1C315.002 206.1 314.102 202.8 314.102 199.2V124.5C314.102 122.5 314.752 120.85 316.052 119.55C317.452 118.25 319.102 117.6 321.002 117.6H325.202C327.102 117.6 328.702 118.25 330.002 119.55C331.402 120.85 332.102 122.5 332.102 124.5V199.2C332.102 199.7 332.302 200.2 332.702 200.7C333.102 201.1 333.552 201.3 334.052 201.3H361.052C361.552 201.3 362.002 201.1 362.402 200.7C362.802 200.2 363.002 199.7 363.002 199.2V124.5C363.002 122.5 363.652 120.85 364.952 119.55C366.352 118.25 368.002 117.6 369.902 117.6H373.952C375.952 117.6 377.602 118.25 378.902 119.55C380.202 120.85 380.852 122.5 380.852 124.5V199.2ZM458.157 128.55C458.157 130.45 457.457 132.1 456.057 133.5C454.757 134.8 453.207 135.45 451.407 135.45H412.707C411.507 135.45 410.907 136.1 410.907 137.4V157.35C410.907 158.75 411.507 159.45 412.707 159.45H446.007C448.007 159.45 449.657 160.1 450.957 161.4C452.257 162.7 452.907 164.3 452.907 166.2V170.4C452.907 172.3 452.257 173.95 450.957 175.35C449.657 176.65 448.007 177.3 446.007 177.3H412.707C411.507 177.3 410.907 177.9 410.907 179.1V212.1C410.907 214 410.207 215.65 408.807 217.05C407.507 218.35 405.907 219 404.007 219H399.807C398.007 219 396.407 218.35 395.007 217.05C393.707 215.65 393.057 214 393.057 212.1V124.5C393.057 122.5 393.707 120.85 395.007 119.55C396.407 118.25 398.007 117.6 399.807 117.6H451.407C453.207 117.6 454.757 118.25 456.057 119.55C457.457 120.85 458.157 122.5 458.157 124.5V128.55ZM535.207 128.55C535.207 130.45 534.507 132.1 533.107 133.5C531.807 134.8 530.257 135.45 528.457 135.45H489.757C488.557 135.45 487.957 136.1 487.957 137.4V157.35C487.957 158.75 488.557 159.45 489.757 159.45H523.057C525.057 159.45 526.707 160.1 528.007 161.4C529.307 162.7 529.957 164.3 529.957 166.2V170.4C529.957 172.3 529.307 173.95 528.007 175.35C526.707 176.65 525.057 177.3 523.057 177.3H489.757C488.557 177.3 487.957 177.9 487.957 179.1V212.1C487.957 214 487.257 215.65 485.857 217.05C484.557 218.35 482.957 219 481.057 219H476.857C475.057 219 473.457 218.35 472.057 217.05C470.757 215.65 470.107 214 470.107 212.1V124.5C470.107 122.5 470.757 120.85 472.057 119.55C473.457 118.25 475.057 117.6 476.857 117.6H528.457C530.257 117.6 531.807 118.25 533.107 119.55C534.507 120.85 535.207 122.5 535.207 124.5V128.55ZM365.031 319.2C365.031 322.8 364.131 326.1 362.331 329.1C360.531 332.1 358.131 334.5 355.131 336.3C352.131 338.1 348.831 339 345.231 339H305.181C303.281 339 301.631 338.35 300.231 337.05C298.931 335.65 298.281 334 298.281 332.1V244.5C298.281 242.5 298.931 240.85 300.231 239.55C301.631 238.25 303.281 237.6 305.181 237.6H343.131C346.831 237.6 350.131 238.5 353.031 240.3C356.031 242.1 358.431 244.5 360.231 247.5C362.031 250.5 362.931 253.85 362.931 257.55V275.4C362.931 278.1 362.431 280.6 361.431 282.9C360.931 284 361.031 285.1 361.731 286.2C363.931 289.5 365.031 293.2 365.031 297.3V319.2ZM345.231 275.4V257.55C345.231 256.95 344.981 256.45 344.481 256.05C344.081 255.65 343.631 255.45 343.131 255.45H318.231C316.931 255.45 316.281 256.1 316.281 257.4V275.4C316.281 276.7 316.931 277.35 318.231 277.35H343.131C343.631 277.35 344.081 277.15 344.481 276.75C344.981 276.35 345.231 275.9 345.231 275.4ZM347.181 319.2V297.3C347.181 295.9 346.531 295.2 345.231 295.2H318.231C316.931 295.2 316.281 295.85 316.281 297.15V319.35C316.281 320.65 316.931 321.3 318.231 321.3H345.231C345.731 321.3 346.181 321.1 346.581 320.7C346.981 320.2 347.181 319.7 347.181 319.2ZM445.936 319.2C445.936 322.8 445.036 326.1 443.236 329.1C441.436 332.1 439.036 334.5 436.036 336.3C433.036 338.1 429.736 339 426.136 339H397.336C393.736 339 390.386 338.1 387.286 336.3C384.286 334.5 381.886 332.1 380.086 329.1C378.286 326.1 377.386 322.8 377.386 319.2V257.55C377.386 253.85 378.286 250.5 380.086 247.5C381.886 244.5 384.286 242.1 387.286 240.3C390.386 238.5 393.736 237.6 397.336 237.6H426.136C429.736 237.6 433.036 238.5 436.036 240.3C439.036 242.1 441.436 244.5 443.236 247.5C445.036 250.5 445.936 253.85 445.936 257.55V319.2ZM428.086 319.2V257.55C428.086 256.15 427.436 255.45 426.136 255.45H397.336C396.836 255.45 396.336 255.65 395.836 256.05C395.436 256.45 395.236 256.95 395.236 257.55V319.2C395.236 319.7 395.436 320.2 395.836 320.7C396.336 321.1 396.836 321.3 397.336 321.3H426.136C426.636 321.3 427.086 321.1 427.486 320.7C427.886 320.2 428.086 319.7 428.086 319.2ZM522.446 247.8L501.596 286.5C501.096 287.7 501.096 288.85 501.596 289.95L522.446 328.95C523.646 331.25 523.596 333.5 522.296 335.7C520.896 337.9 518.896 339 516.296 339H511.796C508.896 339 506.896 337.8 505.796 335.4L491.546 309C491.446 308.6 491.146 308.4 490.646 308.4C490.246 308.4 489.946 308.6 489.746 309L475.496 335.4C475.096 336.5 474.296 337.4 473.096 338.1C471.996 338.7 470.796 339 469.496 339H464.846C462.346 339 460.396 337.9 458.996 335.7C457.696 333.5 457.646 331.25 458.846 328.95L479.696 289.95C480.196 288.85 480.196 287.7 479.696 286.5L458.846 247.8C457.646 245.3 457.696 243 458.996 240.9C460.396 238.7 462.346 237.6 464.846 237.6H469.496C472.196 237.6 474.196 238.8 475.496 241.2L489.746 267.75C489.946 268.15 490.246 268.35 490.646 268.35C491.046 268.35 491.346 268.15 491.546 267.75L505.796 241.2C507.096 238.8 509.096 237.6 511.796 237.6H516.446C518.946 237.6 520.896 238.7 522.296 240.9C523.596 243 523.646 245.3 522.446 247.8Z" fill="#315B70"/>
</g>
</g>
<rect x="15" y="15" width="542" height="542" rx="65" stroke="#A7ECEF" stroke-width="30"/>
</g>
<defs>
<filter id="filter0_i_0_1" x="0" y="0" width="572" height="572" filterUnits="userSpaceOnUse" color-interpolation-filters="sRGB">
<feFlood flood-opacity="0" result="BackgroundImageFix"/>
<feBlend mode="normal" in="SourceGraphic" in2="BackgroundImageFix" result="shape"/>
<feColorMatrix in="SourceAlpha" type="matrix" values="0 0 0 0 0 0 0 0 0 0 0 0 0 0 0 0 0 0 127 0" result="hardAlpha"/>
<feOffset dx="100" dy="100"/>
<feComposite in2="hardAlpha" operator="arithmetic" k2="-1" k3="1"/>
<feColorMatrix type="matrix" values="0 0 0 0 0.576807 0 0 0 0 0.708709 0 0 0 0 0.745192 0 0 0 0.25 0"/>
<feBlend mode="normal" in2="shape" result="effect1_innerShadow_0_1"/>
</filter>
<filter id="filter1_d_0_1" x="336" y="322" width="159" height="159" filterUnits="userSpaceOnUse" color-interpolation-filters="sRGB">
<feFlood flood-opacity="0" result="BackgroundImageFix"/>
<feColorMatrix in="SourceAlpha" type="matrix" values="0 0 0 0 0 0 0 0 0 0 0 0 0 0 0 0 0 0 127 0" result="hardAlpha"/>
<feOffset dx="5" dy="5"/>
<feGaussianBlur stdDeviation="2"/>
<feComposite in2="hardAlpha" operator="out"/>
<feColorMatrix type="matrix" values="0 0 0 0 0 0 0 0 0 0 0 0 0 0 0 0 0 0 0.25 0"/>
<feBlend mode="normal" in2="BackgroundImageFix" result="effect1_dropShadow_0_1"/>
<feBlend mode="normal" in="SourceGraphic" in2="effect1_dropShadow_0_1" result="shape"/>
</filter>
<filter id="filter2_d_0_1" x="259" y="370" width="62" height="62" filterUnits="userSpaceOnUse" color-interpolation-filters="sRGB">
<feFlood flood-opacity="0" result="BackgroundImageFix"/>
<feColorMatrix in="SourceAlpha" type="matrix" values="0 0 0 0 0 0 0 0 0 0 0 0 0 0 0 0 0 0 127 0" result="hardAlpha"/>
<feOffset dx="5" dy="5"/>
<feGaussianBlur stdDeviation="2"/>
<feComposite in2="hardAlpha" operator="out"/>
<feColorMatrix type="matrix" values="0 0 0 0 0 0 0 0 0 0 0 0 0 0 0 0 0 0 0.25 0"/>
<feBlend mode="normal" in2="BackgroundImageFix" result="effect1_dropShadow_0_1"/>
<feBlend mode="normal" in="SourceGraphic" in2="effect1_dropShadow_0_1" result="shape"/>
</filter>
<filter id="filter3_d_0_1" x="384" y="259" width="62" height="62" filterUnits="userSpaceOnUse" color-interpolation-filters="sRGB">
<feFlood flood-opacity="0" result="BackgroundImageFix"/>
<feColorMatrix in="SourceAlpha" type="matrix" values="0 0 0 0 0 0 0 0 0 0 0 0 0 0 0 0 0 0 127 0" result="hardAlpha"/>
<feOffset dx="5" dy="5"/>
<feGaussianBlur stdDeviation="2"/>
<feComposite in2="hardAlpha" operator="out"/>
<feColorMatrix type="matrix" values="0 0 0 0 0 0 0 0 0 0 0 0 0 0 0 0 0 0 0.25 0"/>
<feBlend mode="normal" in2="BackgroundImageFix" result="effect1_dropShadow_0_1"/>
<feBlend mode="normal" in="SourceGraphic" in2="effect1_dropShadow_0_1" result="shape"/>
</filter>
<filter id="filter4_d_0_1" x="482" y="286" width="62" height="62" filterUnits="userSpaceOnUse" color-interpolation-filters="sRGB">
<feFlood flood-opacity="0" result="BackgroundImageFix"/>
<feColorMatrix in="SourceAlpha" type="matrix" values="0 0 0 0 0 0 0 0 0 0 0 0 0 0 0 0 0 0 127 0" result="hardAlpha"/>
<feOffset dx="5" dy="5"/>
<feGaussianBlur stdDeviation="2"/>
<feComposite in2="hardAlpha" operator="out"/>
<feColorMatrix type="matrix" values="0 0 0 0 0 0 0 0 0 0 0 0 0 0 0 0 0 0 0.25 0"/>
<feBlend mode="normal" in2="BackgroundImageFix" result="effect1_dropShadow_0_1"/>
<feBlend mode="normal" in="SourceGraphic" in2="effect1_dropShadow_0_1" result="shape"/>
</filter>
<filter id="filter5_d_0_1" x="286" y="456" width="62" height="62" filterUnits="userSpaceOnUse" color-interpolation-filters="sRGB">
<feFlood flood-opacity="0" result="BackgroundImageFix"/>
<feColorMatrix in="SourceAlpha" type="matrix" values="0 0 0 0 0 0 0 0 0 0 0 0 0 0 0 0 0 0 127 0" result="hardAlpha"/>
<feOffset dx="5" dy="5"/>
<feGaussianBlur stdDeviation="2"/>
<feComposite in2="hardAlpha" operator="out"/>
<feColorMatrix type="matrix" values="0 0 0 0 0 0 0 0 0 0 0 0 0 0 0 0 0 0 0.25 0"/>
<feBlend mode="normal" in2="BackgroundImageFix" result="effect1_dropShadow_0_1"/>
<feBlend mode="normal" in="SourceGraphic" in2="effect1_dropShadow_0_1" result="shape"/>
</filter>
<filter id="filter6_d_0_1" x="482" y="456" width="62" height="62" filterUnits="userSpaceOnUse" color-interpolation-filters="sRGB">
<feFlood flood-opacity="0" result="BackgroundImageFix"/>
<feColorMatrix in="SourceAlpha" type="matrix" values="0 0 0 0 0 0 0 0 0 0 0 0 0 0 0 0 0 0 127 0" result="hardAlpha"/>
<feOffset dx="5" dy="5"/>
<feGaussianBlur stdDeviation="2"/>
<feComposite in2="hardAlpha" operator="out"/>
<feColorMatrix type="matrix" values="0 0 0 0 0 0 0 0 0 0 0 0 0 0 0 0 0 0 0.25 0"/>
<feBlend mode="normal" in2="BackgroundImageFix" result="effect1_dropShadow_0_1"/>
<feBlend mode="normal" in="SourceGraphic" in2="effect1_dropShadow_0_1" result="shape"/>
</filter>
<filter id="filter7_d_0_1" x="286" y="286" width="62" height="62" filterUnits="userSpaceOnUse" color-interpolation-filters="sRGB">
<feFlood flood-opacity="0" result="BackgroundImageFix"/>
<feColorMatrix in="SourceAlpha" type="matrix" values="0 0 0 0 0 0 0 0 0 0 0 0 0 0 0 0 0 0 127 0" result="hardAlpha"/>
<feOffset dx="5" dy="5"/>
<feGaussianBlur stdDeviation="2"/>
<feComposite in2="hardAlpha" operator="out"/>
<feColorMatrix type="matrix" values="0 0 0 0 0 0 0 0 0 0 0 0 0 0 0 0 0 0 0.25 0"/>
<feBlend mode="normal" in2="BackgroundImageFix" result="effect1_dropShadow_0_1"/>
<feBlend mode="normal" in="SourceGraphic" in2="effect1_dropShadow_0_1" result="shape"/>
</filter>
<filter id="filter8_d_0_1" x="384" y="482" width="62" height="62" filterUnits="userSpaceOnUse" color-interpolation-filters="sRGB">
<feFlood flood-opacity="0" result="BackgroundImageFix"/>
<feColorMatrix in="SourceAlpha" type="matrix" values="0 0 0 0 0 0 0 0 0 0 0 0 0 0 0 0 0 0 127 0" result="hardAlpha"/>
<feOffset dx="5" dy="5"/>
<feGaussianBlur stdDeviation="2"/>
<feComposite in2="hardAlpha" operator="out"/>
<feColorMatrix type="matrix" values="0 0 0 0 0 0 0 0 0 0 0 0 0 0 0 0 0 0 0.25 0"/>
<feBlend mode="normal" in2="BackgroundImageFix" result="effect1_dropShadow_0_1"/>
<feBlend mode="normal" in="SourceGraphic" in2="effect1_dropShadow_0_1" result="shape"/>
</filter>
<filter id="filter9_d_0_1" x="510" y="370" width="62" height="62" filterUnits="userSpaceOnUse" color-interpolation-filters="sRGB">
<feFlood flood-opacity="0" result="BackgroundImageFix"/>
<feColorMatrix in="SourceAlpha" type="matrix" values="0 0 0 0 0 0 0 0 0 0 0 0 0 0 0 0 0 0 127 0" result="hardAlpha"/>
<feOffset dx="5" dy="5"/>
<feGaussianBlur stdDeviation="2"/>
<feComposite in2="hardAlpha" operator="out"/>
<feColorMatrix type="matrix" values="0 0 0 0 0 0 0 0 0 0 0 0 0 0 0 0 0 0 0.25 0"/>
<feBlend mode="normal" in2="BackgroundImageFix" result="effect1_dropShadow_0_1"/>
<feBlend mode="normal" in="SourceGraphic" in2="effect1_dropShadow_0_1" result="shape"/>
</filter>
<filter id="filter10_d_0_1" x="160" y="117.6" width="384.207" height="230.4" filterUnits="userSpaceOnUse" color-interpolation-filters="sRGB">
<feFlood flood-opacity="0" result="BackgroundImageFix"/>
<feColorMatrix in="SourceAlpha" type="matrix" values="0 0 0 0 0 0 0 0 0 0 0 0 0 0 0 0 0 0 127 0" result="hardAlpha"/>
<feOffset dx="5" dy="5"/>
<feGaussianBlur stdDeviation="2"/>
<feComposite in2="hardAlpha" operator="out"/>
<feColorMatrix type="matrix" values="0 0 0 0 0 0 0 0 0 0 0 0 0 0 0 0 0 0 0.25 0"/>
<feBlend mode="normal" in2="BackgroundImageFix" result="effect1_dropShadow_0_1"/>
<feBlend mode="normal" in="SourceGraphic" in2="effect1_dropShadow_0_1" result="shape"/>
</filter>
<clipPath id="clip0_0_1">
<rect x="30" y="30" width="512" height="512" rx="50" fill="white"/>
</clipPath>
</defs>
</svg>
